<?xml version="1.0" encoding="UTF-8"?>
<svg xmlns="http://www.w3.org/2000/svg" width="100" viewBox="0 0 100 100" height="100">
    <path d="m87.477,49.995l-.408-4.043c2.667-1.07 5.315-2.305 7.932-3.713-.489-3.381-1.825-6.622-2.809-9.9-2.969,.238-5.888,.638-8.728,1.188l-1.94-3.574c-.604-1.218-1.649-2.137-2.456-3.221 1.655-2.334 3.2-4.802 4.624-7.392-2.163-2.662-5.11-4.562-7.698-6.794-2.321,1.727-4.604,3.703-6.687,5.684l-3.573-1.94c-1.142-.768-2.54-.923-3.804-1.398 .129-2.849 .093-5.756-.113-8.699-3.247-1.216-6.772-1.029-10.159-1.497-1.019,2.621-1.862,5.418-2.536,8.293l-4.049,.408c-1.357,.079-2.695,.269-3.971,.768-1.422-2.446-3.015-4.85-4.771-7.193-3.372,.82-6.346,2.571-9.358,4.235 .621,2.85 1.31,5.493 2.293,8.263l-3.135,2.585c-1.034,.875-2.161,1.655-2.945,2.779-2.513-1.281-5.149-2.437-7.883-3.456-2.36,2.528-3.991,5.557-5.574,8.618 2.043,2.058 4.116,3.938 6.355,5.708l-1.208,3.883c-.314,1.31-.996,2.549-1.007,3.924-2.796,.285-5.622,.738-8.461,1.364-.542,3.42-.542,6.831 0,10.249 2.84,.631 5.667,1.081 8.461,1.369 .014,1.372 .695,2.609 1.01,3.924l1.206,3.883c-2.24,1.766-4.31,3.648-6.355,5.708 1.585,3.058 3.214,6.087 5.574,8.615 2.739-1.02 5.373-2.176 7.886-3.459 .782,1.125 1.912,1.904 2.945,2.78l3.137,2.59c-.983,2.768-1.677,5.411-2.295,8.26 3.012,1.667 5.986,3.415 9.361,4.235 1.755-2.343 3.346-4.746 4.77-7.189 1.276,.494 2.609,.684 3.972,.765l4.044,.408c.674,2.875 1.521,5.672 2.541,8.293 3.384-.468 6.907-.283 10.157-1.496 .206-2.945 .242-5.853 .112-8.699 1.264-.478 2.66-.638 3.802-1.4l3.573-1.938c2.082,1.981 4.367,3.955 6.691,5.68 2.588-2.229 5.53-4.13 7.693-6.795-1.422-2.588-2.969-5.056-4.624-7.389 .807-1.084 1.854-2.003 2.456-3.224l1.94-3.573c2.837,.554 5.759,.954 8.728,1.187 .981-3.275 2.317-6.516 2.809-9.897-2.614-1.408-5.265-2.646-7.932-3.713l.407-4.054zm-25.433,25.646c-4.911,1.856-10.375,3.344-15.71,2.183-5.238-.835-10.48-2.828-14.393-6.581-4.007-3.507-7.293-8.097-8.555-13.325-1.638-5.094-1.638-10.74 0-15.836 1.264-5.229 4.55-9.816 8.555-13.325 3.914-3.751 9.157-5.747 14.39-6.581 5.337-1.163 10.798,.326 15.712,2.183 4.958,2.166 8.927,6.058 12.023,10.397 2.967,4.549 4.168,9.878 4.54,15.241-.369,5.365-1.573,10.694-4.54,15.241-3.095,4.342-7.062,8.237-12.022,10.403z"/>
</svg>