<?xml version="1.0" encoding="UTF-8"?>
<svg xmlns="http://www.w3.org/2000/svg" width="100" viewBox="0 0 100 100" height="100">
    <style>
    .app-icon-hexagon {
      display: none;
    }
    .app-icon {
      display: none;
    }
  </style>
    <g class="app-icon-circle">
        <xi:include xmlns:xi="http://www.w3.org/2001/XInclude" href="../../../common/resources/images/svgFragments/es-icon-empty-circle.svg">
            <xi:fallback>
                <path d="m50.0028,.2755c-27.4143,0-49.7052,22.3185-49.7052,49.7329 0,27.4144 22.2908,49.7052 49.7052,49.7052 27.4144,0 49.7052-22.2908 49.7052-49.7052 0-27.4143-22.2908-49.7329-49.7052-49.7329zm0,7.0097c23.6262,0 42.6955,19.097 42.6955,42.7232 0,23.6262-19.0693,42.6955-42.6955,42.6955-23.6262,0-42.6955-19.0693-42.6955-42.6955 0-23.6262 19.0693-42.7232 42.6955-42.7232z"/>
            </xi:fallback>
        </xi:include>
        <g transform="matrix(0.7504722,0,0,0.7504722,12.476827,12.47664)" xid="app-icon-g">
            <xi:include xmlns:xi="http://www.w3.org/2001/XInclude" href="." xpointer="xpointer(//*[@xid='app-icon']/*)"/>
        </g>
    </g>
    <g class="app-icon-hexagon">
        <xi:include xmlns:xi="http://www.w3.org/2001/XInclude" href="../../../common/resources/images/svgFragments/es-icon-hexagon.svg">
            <xi:fallback>
                <path d="m74.5688,6.7888a4.0004,4.0004 0 0,0 -1.7117-.3817l-45.7072,.0404a4.0004,4.0004 0 0,0 -3.458,1.9611l-22.8718,39.6049a4.0004,4.0004 0 0,0 .0176,4.0054l22.8354,39.5645a4.0004,4.0004 0 0,0 3.4961,2.0077l45.6866-.0038a4.0004,4.0004 0 0,0 3.4786-1.9978l22.8351-39.6254a4.0004,4.0004 0 0,0 .019-3.9849l-22.8721-39.585a4.0004,4.0004 0 0,0 -1.7479-1.6055zm-4.0258,7.6122 20.5418,35.5831-20.5195,35.5798-41.0818,.0333-20.5418-35.5831 20.4829-35.6003l41.1184-.0128z"/>
            </xi:fallback>
        </xi:include>
        <g transform="matrix(0.5998139,0,0,0.5998139,20.010006,20.009705)" xid="app-icon-g">
            <xi:include xmlns:xi="http://www.w3.org/2001/XInclude" href="." xpointer="xpointer(//*[@xid='app-icon']/*)"/>
        </g>
    </g>
    <g class="app-icon" xid="app-icon">
        <xi:include xmlns:xi="http://www.w3.org/2001/XInclude" href="app-specific-icon.svg" xpointer="xpointer(/*/*)">
            <xi:fallback>
                <path d="m50.0067,.26c-1.4529,0-2.856,.0896-4.1994,.1891-25.4949,2.1393-45.5565,23.4924-45.5565,49.532 0,3.0945 .2687,6.1094 .806,9.0447-.1791-.6269-.3483-1.2637-.4975-1.9005 2.7664,19.174 16.5389,34.8356 34.6699,40.3878 4.9358,1.403 9.8815,2.2089 14.7676,2.2388 27.4553,0 49.7559-22.3282 49.7559-49.7808 0-27.4526-22.3006-49.7211-49.7559-49.7211zm-13.8322,2c-9.9313,3.0647-15.8721,8.7562-18.1908,16.6367-2.3385,7.9502-2.2987,15.0845 6.309,24.0397 3.9009,4.0597 9.5631,2.1393 15.4542,6.8059 4.0999,4.0099 11.3244,2.806 5.2244,10.3581-3.7615,7.6318 8.5381,12.2089 5.2841,21.0844-1.4429,3.9303-2.8461,8.3681-6.1299,10.9751-.6269,.4975-1.6618,.8259-2.647,1.0547-14.7576-2.4577-26.4104-10.9253-33.4559-20.8058-4.4979-6.2885-6.2792-14.2785-6.2792-22.4178 0-21.2834 14.7377-41.6316 34.4211-47.731zm13.6032,5.6915c23.2758,.3085 42.0438,18.7959 42.0438,42.0694 0,23.2735-18.7679,44.0296-42.0438,44.0296-1.0847,0-2.1693-.0696-3.264-.1592 4.8661-6.2089 14.1008-10.4775 18.8177-15.0845 3.9407-3.9502 15.484-18.4874 5.911-19.7412-4.4183-1.8806-5.8215-5.6915-11.006-8.2686-3.7814-1.5622-14.1207,2.597-21.1164-4.4179-2.1693-2.6766 1.0349-7.1144-5.9409-2.4278-.3981,.2687-.5672,.1891-.8061,.0597-1.9504-1.0249-2.7366-4.8358-.5871-7.6218 2.1196-2.7463 8.4286-3.1642 10.1701-.2488 1.1444,1.9204 2.0599,3.2338 1.7414-.0299-2.2788-4.5373 .8757-4 1.9604-6.189 .1592-2.0099 2.5077-8.1791 3.881-7.5522 1.3036,.5871 1.2539,.5871 2.3286-.2886 4.0899-3.5721 1.4628-5.1542-.0398-7.2636-2.846-4-12.837,.8358-14.5387-2.398-.4379-.8358-.4578-1.2139 .0299-2.796 4.4681-1.1542 10.1601-1.7114 12.4688-1.6816z"/>
            </xi:fallback>
        </xi:include>
    </g>
</svg>