<?xml version="1.0" encoding="UTF-8"?>
<svg xmlns="http://www.w3.org/2000/svg" xmlns:xlink="http://www.w3.org/1999/xlink" width="1000" viewBox="0 0 1000 1000" height="1000">
    <style>
        .es-icon-text, .es-icon-globe {
		    fill: white;
		}
		.es-icon-text {
		 	text-anchor : start; 
		 	font-weight: 600;
		}
		.es-icon-subtitle {
			font-size: 80px;
			font-family:"Open Sans";
		}
		.es-icon-circle {
		    fill: #1c3c57;
		}

		.es-icon-barchart {
		    fill: #8d9324;
		}
		<!-- .es-icon-globe {
		    display: none;
		} -->
	<!--     .es-icon-globe, .es-icon-circle, .es-icon-text {
	    display: none;
	} -->
    </style>
    <defs>
       
        
    </defs>
    <path fill="#1c3c57" class="es-icon-circle" d="m509.9988-4.543a513.0897,513.0897 0 1,1 -1026.1793,0 513.0897,513.0897 0 1,1 1026.1793,0z" transform="matrix(.97449 0 0 .97449 503.01205 506.0663)"/>
    <!-- <g>
        <g fill="#fff" class="es-app-icon" transform="matrix(3.0315614,0,0,3.0315614,56.170311,348.56367)">
            <xi:include xmlns:xi="http://www.w3.org/2001/XInclude" href="resources/images/app-icon.svg">
                <xi:fallback>
                    <path fill="#fff" d="m50.0067,.2681c-1.4526,0-2.8555,.0895-4.1987,.189-25.4908,2.139-45.5491,23.4886-45.5491,49.5239 0,3.094 .2686,6.1084 .8059,9.0432-.1791-.6268-.3482-1.2635-.4975-1.9002 2.766,19.1709 16.5361,34.8299 34.6643,40.3812 4.935,1.4028 9.8799,2.2086 14.7651,2.2384 27.4508,0 49.7478-22.3246 49.7478-49.7726 0-27.4481-22.297-49.7129-49.7478-49.7129zm-13.8199,2.0096c-9.9297,3.0642-15.8695,8.7547-18.1878,16.634-2.3382,7.9489-2.2983,15.082 6.308,24.0357 3.9002,4.059 9.5616,2.139 15.4516,6.8049 4.0993,4.0093 11.3225,2.8055 5.2235,10.3564-3.761,7.6306 8.5367,12.2068 5.2832,21.081-1.4427,3.9297-2.8456,8.3667-6.1289,10.9733-.6268,.4974-1.6616,.8257-2.6465,1.0546-14.7552-2.4573-26.4062-10.9235-33.4504-20.8025-4.4972-6.2874-6.2782-14.2762-6.2782-22.4141-0-21.2799 14.7353-41.6247 34.4156-47.7232zm13.601,5.6906c23.272,.3084 42.0369,18.7928 42.0369,42.0625 0,23.2697-18.7649,44.0224-42.0369,44.0224-1.0845,0-2.169-.0697-3.2635-.1592 4.8753-6.2079 14.1085-10.4759 18.8246-15.082 3.9401-3.9495 15.4815-18.4845 5.91-19.738-4.4176-1.8803-5.8205-5.6906-11.0042-8.2672-3.7808-1.562-14.1184,2.5966-21.113-4.4172-2.169-2.6762 1.0347-7.1132-5.9399-2.4274-.398,.2686-.5672,.189-.806,.0597-1.9501-1.0247-2.7361-4.835-.587-7.6206 2.1192-2.7458 8.4273-3.1636 10.1685-.2487 1.1443,1.9201 2.0595,3.2333 1.7412-.0298-2.2784-4.5365 .8755-3.9993 1.96-6.188 .1592-2.0096 2.5073-8.1777 3.8803-7.551 1.3034,.587 1.2537,.587 2.3282-.2885 4.0893-3.5715 1.4625-5.1534-.0397-7.2624-2.8456-3.9993-12.8349,.8357-14.5364-2.3976-.4378-.8357-.4577-1.2138 .0298-2.7956 4.4673-1.154 10.1585-1.7111 12.4668-1.6813z"/>
                </xi:fallback>
            </xi:include>
        </g>
    </g> -->
    <path fill="#fff" class="es-icon-globe" d="m208.015,350.03c-4.3804,0-8.6109,.27-12.6613,.57-76.8677,6.45-137.3537,70.83-137.3537,149.34 0,9.33 .8101,18.42 2.4302,27.27-.5401-1.89-1.0501-3.81-1.5001-5.73 8.3408,57.81 49.865,105.03 104.5305,121.77 14.8815,4.23 29.793,6.66 44.5245,6.75 82.7783,0 150.015-67.32 150.015-150.09 0-82.77-67.2367-149.91-150.015-149.91zm-41.7342,6c-29.943,9.24-47.8548,26.4-54.8455,50.16-7.0507,23.97-6.9307,45.48 19.0219,72.48 11.7612,12.24 28.8329,6.45 46.5947,20.52 12.3613,12.09 34.1434,8.46 15.7516,31.23-11.3411,23.01 25.7426,36.81 15.9316,63.57-4.3504,11.85-8.5809,25.23-18.4818,33.09-1.8902,1.5-5.0105,2.49-7.9808,3.18-44.4945-7.41-79.628-32.94-100.8701-62.73-13.5614-18.96-18.9319-43.05-18.9319-67.59 0-64.17 44.4344-125.52 103.7804-143.91zm40.9841,17.16c70.177,.93 126.7627,56.67 126.7627,126.84 0,70.17-56.5857,132.75-126.7627,132.75-3.2703,0-6.5406-.21-9.841-.48 14.6715-18.72 42.5143-31.59 56.7357-45.48 11.8812-11.91 46.6847-55.74 17.8218-59.52-13.3213-5.67-17.5518-17.16-33.1833-24.93-11.4011-4.71-42.5742,7.83-63.6663-13.32-6.5406-8.07 3.1203-21.45-17.9118-7.32-1.2002,.81-1.7102,.57-2.4303,.18-5.8806-3.09-8.2508-14.58-1.7702-22.98 6.3906-8.28 25.4125-9.54 30.6631-.75 3.4504,5.79 6.2106,9.75 5.2505-.09-6.8707-13.68 2.6403-12.06 5.9106-18.66 .48-6.06 7.5608-24.66 11.7012-22.77 3.9304,1.77 3.7804,1.77 7.0207-.87 12.3312-10.77 4.4104-15.54-.12-21.9-8.5808-12.06-38.7039,2.52-43.8344-7.23-1.3202-2.52-1.3802-3.66 .09-8.43 13.4713-3.48 30.633-5.16 37.5937-5.07z"/>
    <g transform="translate(58 350)" class="es-icon-radial">
        <g fill="#b5bc2c" class="arc" transform="translate(150 150)">
            <path d="m79.0487-157.2492a176,176 0 0,1 11.8743,6.5541l-6.7159,11.1309a163,163 0 0,0 -10.9972-6.07Z"/>
        </g>
        <g fill="#abb22a" class="arc" transform="translate(150 150)">
            <path d="m146.689-71.0727a163,163 0 0,1 16.2798,74.2576l-12.9975-.254a150,150 0 0,0 -14.9815-68.3352Z"/>
        </g>
        <g fill="#a1a828" class="arc" transform="translate(150 150)">
            <path d="m166.9195-55.8021a176,176 0 0,1 -71.5387,203.7159l-7.0452-10.9255a163,163 0 0,0 66.2546-188.6687Z"/>
        </g>
        <g fill="#979d26" class="arc" transform="translate(150 150)">
            <path d="m145.9815,72.5148a163,163 0 0,1 -150.878,90.4116l.3905-12.9941a150,150 0 0,0 138.8448-83.2009Z"/>
        </g>
        <g fill="#8d9324" class="arc" transform="translate(150 150)">
            <path d="m22.5695,174.5469a176,176 0 0,1 -179.0144-93.9182l11.5556-5.9555a163,163 0 0,0 165.7917,86.981Z"/>
        </g>
        <g fill="#838822" class="arc" transform="translate(150 150)">
            <path d="m-147.5043,69.3649a163,163 0 0,1 -14.9901-82.1937l12.9597,1.0232a150,150 0 0,0 13.7946,75.6383Z"/>
        </g>
        <g fill="#797e20" class="arc" transform="translate(150 150)">
            <path d="m-175.8236-7.8787a176,176 0 0,1 90.2012-145.89l6.3244,11.3579a163,163 0 0,0 -83.5386,135.1141Z"/>
        </g>
        <g fill="#6f731e" class="arc" transform="translate(150 150)">
            <path d="m-89.884-135.9775a163,163 0 0,1 78.6456-26.6346l.8963,12.9691a150,150 0 0,0 -72.3733,24.5104Z"/>
        </g>
    </g>
    <g word-spacing="0">
        <g fill="#8d9324" class="es-icon-barchart" letter-spacing="-12.514" transform="translate(-34 -141)">
            <path d="m817.0555,690.6626 0-68.2986c.7727-.0595 15.9012-.1916 15.9012-.1916v68.4902h-15.9012z"/>
            <path d="m869.0083,690.6626-15.9012,0 0-104.9864 15.9012,0 0,104.9864z"/>
            <path d="m906.3051,690.6626-15.9012,0 0-149.0501 15.9012,0 0,149.0501z"/>
        </g>
        <g fill="#fff" class="es-icon-text es-icon-title" letter-spacing="-12.514">
            <path d="m459.7785,551.0519c-15.5181,0-27.7793-4.7257-36.7836-14.177-8.9405-9.4513-13.4107-22.5746-13.4107-39.3699 0-16.9229 4.1509-30.3655 12.4528-40.3278 8.3657-9.9621 19.5731-14.9432 33.6225-14.9433 13.1552,.0001 23.5644,4.3426 31.2277,13.0275 7.6631,8.6212 11.4948,20.0203 11.4949,34.1972v10.058h-72.3218c.3193,12.3251 3.4165,21.6806 9.2917,28.0666 5.939,6.386 14.2727,9.5791 25.0013,9.5791 11.3032,0 22.4788-2.3628 33.5267-7.0885v14.177c-5.6198,2.4267-10.9521,4.1509-15.997,5.1727-4.9812,1.0856-11.016,1.6284-18.1044,1.6284m-4.3106-95.5032c-8.4296,.0001-15.1669,2.7461-20.2118,8.238-4.9811,5.4921-7.9187,13.0915-8.8127,22.7982h54.888c-.0001-10.026-2.2352-17.6892-6.7053-22.9897-4.4703-5.3642-10.8563-8.0463-19.1581-8.0464z"/>
            <path d="m505.6746,538.9823c0-4.2786 .9579-7.5036 2.8737-9.6748 1.9796-2.2351 4.7895-3.3527 8.4296-3.3527 3.7039,0 6.5776,1.1176 8.6212,3.3527 2.1074,2.1713 3.1611,5.3962 3.1611,9.6748 0,4.1509-1.0537,7.3439-3.1611,9.5791-2.1074,2.2351-4.9811,3.3527-8.6211,3.3527-3.2569,0-5.971-.9898-8.1422-2.9695-2.1074-2.0435-3.1611-5.3643-3.1611-9.9622z"/>
            <path d="m628.9913,511.8735c-.0001,12.3251-4.4703,21.936-13.4107,28.833-8.9405,6.8969-21.074,10.3454-36.4004,10.3454-16.6037,0-29.3758-2.1393-38.3162-6.418v-15.7096c5.7474,2.4267 12.0057,4.3425 18.7749,5.7474 6.7692,1.4049 13.4745,2.1074 20.116,2.1074 10.8562,0 19.0303-2.0435 24.5224-6.1306 5.4919-4.1509 8.2379-9.8983 8.238-17.2423-.0001-4.8533-.9899-8.8127-2.9695-11.878-1.9159-3.1291-5.1728-6.0028-9.7706-8.6212-4.5341-2.6182-11.463-5.5877-20.7866-8.9085-13.0275-4.6617-22.3511-10.1857-27.9708-16.5718-5.5559-6.3859-8.3338-14.7197-8.3338-25.0013 0-10.7923 4.0551-19.3815 12.1654-25.7677 8.1102-6.3859 18.8388-9.5789 32.1856-9.579 13.9215,.0001 26.7255,2.5546 38.412,7.6632l-5.0769,14.177c-11.5588-4.8533-22.7982-7.2799-33.7183-7.2801-8.6212,.0001-15.3584,1.8521-20.2118,5.5559-4.8534,3.704-7.2801,8.8448-7.2801,15.4223 0,4.8535 .894,8.8447 2.6821,11.9738 1.7881,3.0654 4.7895,5.9072 9.0043,8.5254 4.2786,2.5545 10.7924,5.3963 19.5413,8.5254 14.6878,5.2366 24.7777,10.8563 30.2698,16.8591 5.5557,6.0029 8.3337,13.7939 8.3338,23.3729z"/>
            <path d="m776.543,549.136 0-68.2986c-.0001-8.3656-1.7882-14.6239-5.3643-18.7749-3.5763-4.2147-9.1322-6.3221-16.6676-6.3222-9.8985,.0001-17.2105,2.8419-21.936,8.5254-4.7258,5.6837-7.0886,14.4325-7.0885,26.2466v58.6238h-15.9012v-68.2986c-.0001-8.3656-1.7882-14.6239-5.3643-18.7749-3.5763-4.2147-9.164-6.3221-16.7633-6.3222-9.9623,.0001-17.2743,3.0015-21.936,9.0043-4.598,5.9391-6.8969,15.7097-6.8969,29.3119v55.0796h-15.9012v-104.9864h12.9317l2.5864,14.3686h.7663c3.0014-5.1087 7.2162-9.1 12.6444-11.9738 5.4919-2.8736 11.6225-4.3105 18.3918-4.3106 16.412,.0001 27.1406,5.9391 32.1856,17.817h.7663c3.1291-5.4919 7.6631-9.8344 13.6023-13.0275 5.9389-3.1929 12.7081-4.7894 20.3076-4.7895 11.8779,.0001 20.7545,3.0654 26.6298,9.1959 5.9389,6.0668 8.9084,15.8055 8.9085,29.2161v68.4902h-15.9012z"/>
            <path d="m828.4958,549.136-15.9012,0 0-104.9864 15.9012,0 0,104.9864z"/>
            <path d="m865.7926,549.136-15.9012,0 0-149.05 15.9012,0 0,149.05z"/>
            <path d="m919.9486,551.0519c15.5181,0 27.7793-4.7257 36.7836-14.177 8.9405-9.4513 13.4107-22.5746 13.4107-39.3699 0-16.9229-4.1509-30.3655-12.4528-40.3278-8.3657-9.9621-19.5731-14.9432-33.6225-14.9433-13.1552,.0001-23.5644,4.3426-31.2277,13.0275-7.6631,8.6212-11.4948,20.0203-11.4949,34.1972v10.058h72.3218c-.3193,12.3251-3.4165,21.6806-9.2917,28.0666-5.939,6.386-14.2727,9.5791-25.0013,9.5791-11.3032,0-22.4787-2.3628-33.5267-7.0885v14.177c5.6198,2.4267 10.9521,4.1509 15.997,5.1727 4.9812,1.0856 11.016,1.6284 18.1044,1.6284m4.3106-95.5032c8.4296,.0001 15.1669,2.7461 20.2118,8.238 4.9811,5.4921 7.9187,13.0915 8.8127,22.7982h-54.888c.0001-10.026 2.2352-17.6892 6.7053-22.9897 4.4703-5.3642 10.8563-8.0463 19.1581-8.0464z"/>
        </g>
        <g fill="#fff" id="icon-text-content" class="es-icon-text es-icon-subtitle" letter-spacing="0">
            <text dx="410" dy="650" class="icon-text-content-a"/>
        </g>

		<!--g fill="#fff" class="es-icon-text es-icon-subtitle" letter-spacing="0">
			<text dx="410" dy="650" class="icon-text-content-a">Application </text>
			<text dx="410" dy="730" class="icon-text-content-b">Manager</text>
		</g-->
    </g>
</svg>